<?xml version="1.0" standalone="no"?>
<!DOCTYPE svg PUBLIC "-//W3C//DTD SVG 20010904//EN"
 "http://www.w3.org/TR/2001/REC-SVG-20010904/DTD/svg10.dtd">
<svg version="1.0" xmlns="http://www.w3.org/2000/svg"
 width="828.000000pt" height="830.000000pt" viewBox="0 0 828.000000 830.000000"
 preserveAspectRatio="xMidYMid meet">
<metadata>
Created by potrace 1.16, written by Peter Selinger 2001-2019
</metadata>
<g transform="translate(0.000000,830.000000) scale(0.100000,-0.100000)"
fill="#000000" stroke="none">
<path d="M3772 5527 c-12 -6 -57 -60 -100 -119 -211 -292 -419 -576 -441 -604
-14 -17 -57 -75 -96 -129 -102 -142 -217 -297 -236 -318 -16 -18 -28 -10 -264
160 -136 98 -272 196 -304 217 -31 22 -90 65 -131 95 -41 31 -86 64 -100 73
-31 22 -120 86 -276 198 -65 47 -128 92 -140 100 -12 8 -61 43 -108 78 -47 34
-94 62 -104 61 -9 0 -64 -15 -122 -33 -101 -31 -106 -34 -124 -72 -20 -42 -99
-234 -123 -299 -8 -22 -20 -53 -28 -70 -7 -16 -23 -55 -35 -85 -180 -445 -296
-734 -310 -770 -10 -25 -64 -157 -120 -295 -207 -506 -211 -515 -195 -515 2 0
55 22 117 49 62 27 185 79 273 116 88 37 219 92 290 122 72 30 169 73 218 94
48 21 89 39 92 39 2 0 52 20 111 46 58 25 113 44 122 42 11 -2 21 -27 32 -78
32 -141 100 -425 115 -475 8 -27 19 -80 25 -116 11 -76 29 -131 44 -141 6 -4
267 -8 579 -8 l568 0 65 103 c36 56 104 163 151 237 47 74 104 164 127 200 24
36 73 115 111 175 38 61 71 114 75 118 4 4 38 -7 76 -25 l69 -33 258 -3 258
-3 -3 163 -3 163 -210 0 -210 0 0 -40 0 -40 150 -2 150 -1 3 -71 3 -71 -166 0
c-179 0 -236 9 -280 44 l-28 23 86 137 c48 76 87 141 87 146 0 15 47 20 213
20 l168 0 -3 48 -3 47 -142 3 c-79 1 -143 6 -143 11 0 4 29 52 64 107 36 54
82 126 102 159 21 33 56 89 79 125 23 36 72 113 109 172 109 174 75 177 271
-23 347 -352 487 -491 492 -486 4 5 -134 463 -186 617 -11 30 -33 105 -51 165
-17 61 -37 126 -45 145 -7 19 -25 76 -40 125 -49 164 -56 183 -71 189 -9 3
-190 6 -402 6 -288 0 -393 -3 -410 -13z"/>
<path d="M4304 4216 c-3 -8 -4 -102 -2 -209 l3 -194 29 -41 c87 -126 412 -164
603 -71 50 24 68 40 90 77 28 47 28 49 31 250 l3 203 -58 -3 -58 -3 -5 -192
-5 -192 -30 -31 c-43 -45 -108 -61 -240 -57 -122 3 -192 25 -217 69 -9 16 -15
81 -18 213 l-5 190 -58 3 c-44 2 -59 -1 -63 -12z"/>
<path d="M5481 4211 c-10 -10 -38 -45 -62 -77 -23 -33 -45 -61 -49 -64 -3 -3
-72 -95 -154 -205 l-148 -200 63 -3 c63 -3 64 -3 97 35 19 21 54 67 80 103
107 151 207 280 217 280 15 0 147 -179 140 -190 -3 -6 -51 -10 -105 -10 -97 0
-99 0 -119 -29 -12 -16 -21 -34 -21 -40 0 -8 52 -11 163 -12 l162 0 50 -67 51
-67 67 -3 c41 -2 67 1 67 7 0 14 -321 445 -389 523 -38 43 -79 50 -110 19z"/>
<path d="M6070 3946 l0 -286 59 0 c46 0 60 4 65 17 4 9 6 114 6 232 l-2 216
194 3 c273 4 313 -10 313 -113 0 -63 -19 -89 -73 -101 -43 -10 -55 -10 -225
-12 l-128 -2 3 -37 3 -38 132 -5 132 -5 89 -77 90 -78 82 0 c98 0 98 -1 -27
96 -45 36 -83 68 -83 72 0 4 17 16 37 27 117 63 125 247 14 322 -61 41 -95 46
-393 50 l-288 5 0 -286z"/>
<path d="M7342 4221 c-7 -4 -50 -57 -95 -118 -45 -60 -135 -180 -199 -266 -65
-87 -118 -162 -118 -167 0 -6 28 -10 63 -10 l64 0 73 101 c115 159 241 324
248 326 9 2 142 -181 142 -196 0 -7 -34 -11 -100 -11 -98 0 -102 -1 -125 -27
-45 -51 -39 -53 138 -53 l163 0 52 -70 52 -70 70 0 c39 0 70 2 70 4 0 7 -360
489 -394 529 -33 37 -73 48 -104 28z"/>
<path d="M5662 3523 c-11 -10 -80 -99 -153 -197 -74 -99 -173 -232 -221 -295
-48 -64 -88 -119 -88 -123 0 -5 34 -8 75 -8 l75 0 86 118 c204 276 269 362
274 362 8 -1 160 -209 160 -220 0 -6 -44 -10 -112 -10 l-113 0 -27 -34 c-16
-19 -28 -40 -28 -45 0 -7 60 -11 180 -11 l179 0 61 -80 61 -80 79 0 c44 0 80
2 80 5 0 5 -260 357 -270 365 -4 3 -42 52 -84 110 -107 144 -123 160 -162 160
-17 0 -41 -8 -52 -17z"/>
<path d="M3556 3515 c-90 -32 -130 -87 -123 -173 5 -68 28 -100 102 -137 l60
-30 250 -3 c269 -4 286 -7 305 -58 13 -34 -3 -70 -39 -89 -25 -13 -81 -15
-351 -15 l-320 0 0 -55 0 -55 333 0 c191 0 347 4 368 10 94 26 157 111 145
194 -10 62 -43 107 -101 136 -48 23 -58 24 -295 28 -135 1 -255 5 -267 8 -54
11 -67 99 -20 127 16 8 112 13 332 17 l310 5 0 50 0 50 -325 2 c-259 2 -333
-1 -364 -12z"/>
<path d="M4410 3215 l0 -315 65 0 65 0 0 248 c0 136 4 253 9 260 6 11 59 13
252 10 273 -3 287 -7 309 -74 18 -54 5 -99 -37 -131 l-36 -28 -194 -3 -193 -4
0 -49 0 -50 218 3 c210 3 219 4 266 28 27 14 63 42 79 63 26 31 32 49 35 102
2 36 1 81 -2 100 -9 46 -57 99 -115 127 -44 22 -58 23 -383 26 l-338 3 0 -316z"/>
<path d="M6470 3523 c-50 -10 -126 -46 -167 -79 -66 -54 -95 -112 -101 -199
-9 -141 49 -235 186 -302 l76 -38 273 -3 273 -3 0 55 0 56 -247 0 c-228 0
-252 2 -293 21 -88 39 -132 101 -134 184 -1 90 62 167 160 194 23 6 137 11
277 11 l237 0 0 55 0 55 -257 -1 c-142 -1 -269 -4 -283 -6z"/>
<path d="M7130 3215 l0 -315 355 0 355 0 0 55 0 55 -285 0 -285 0 0 205 0 205
285 0 285 0 0 55 0 55 -355 0 -355 0 0 -315z"/>
<path d="M7377 3263 c-4 -3 -7 -26 -7 -50 l0 -43 220 0 220 0 0 50 0 50 -213
0 c-118 0 -217 -3 -220 -7z"/>
</g>
</svg>
